HIERARCHY
ROOT Hips
{
  OFFSET 0 89.5177 0.535
  CHANNELS 6 Xposition Yposition Zposition Zrotation Xrotation Yrotation
  JOINT Spine
  {
    OFFSET 12.0259 -0.162855 1.69034e-005
    CHANNELS 3 Zrotation Xrotation Yrotation
    JOINT Spine1
    {
      OFFSET 15.3169 -0.0121922 0
      CHANNELS 3 Zrotation Xrotation Yrotation
      JOINT Spine2
      {
        OFFSET 15.3176 -0.0121908 0
        CHANNELS 3 Zrotation Xrotation Yrotation
        JOINT Neck
        {
          OFFSET 19.9142 1.56338 0
          CHANNELS 3 Zrotation Xrotation Yrotation
          JOINT Head
          {
            OFFSET 6.92651 0 0
            CHANNELS 3 Zrotation Xrotation Yrotation
            End Site
            {
              OFFSET 20.7666 0 0
            }
          }
          JOINT LeftShoulder
          {
            OFFSET -6.20654 0.708824 7.28219
            CHANNELS 3 Zrotation Xrotation Yrotation
            JOINT LeftArm
            {
              OFFSET 14.108 0 -1.52588e-005
              CHANNELS 3 Zrotation Xrotation Yrotation
              JOINT LeftForeArm
              {
                OFFSET 28.5802 0 0
                CHANNELS 3 Zrotation Xrotation Yrotation
                JOINT LeftHand
                {
                  OFFSET 27.092 0 0
                  CHANNELS 3 Zrotation Xrotation Yrotation
                  End Site
                  {
                    OFFSET 9.55928 -0.186424 0.145352
                  }
                }
              }
            }
          }
          JOINT RightShoulder
          {
            OFFSET -6.20654 0.708866 -7.28218
            CHANNELS 3 Zrotation Xrotation Yrotation
            JOINT RightArm
            {
              OFFSET 14.108 0 1.52588e-005
              CHANNELS 3 Zrotation Xrotation Yrotation
              JOINT RightForeArm
              {
                OFFSET 28.5802 0 0
                CHANNELS 3 Zrotation Xrotation Yrotation
                JOINT RightHand
                {
                  OFFSET 27.092 0 0
                  CHANNELS 3 Zrotation Xrotation Yrotation
                  End Site
                  {
                    OFFSET 9.55929 -0.186417 -0.145354
                  }
                }
              }
            }
          }
        }
      }
    }
  }
  JOINT LeftUpLeg
  {
    OFFSET 0.005 -0.535 8.837
    CHANNELS 3 Zrotation Xrotation Yrotation
    JOINT LeftLeg
    {
      OFFSET 39.9035 0 0
      CHANNELS 3 Zrotation Xrotation Yrotation
      JOINT LeftFoot
      {
        OFFSET 39.6689 0 0
        CHANNELS 3 Zrotation Xrotation Yrotation
        JOINT LeftToe
        {
          OFFSET 10.1624 13.6296 0
          CHANNELS 3 Zrotation Xrotation Yrotation
          End Site
          {
            OFFSET 8.38147 0 0
          }
        }
      }
    }
  }
  JOINT RightUpLeg
  {
    OFFSET 0.005 -0.535 -8.837
    CHANNELS 3 Zrotation Xrotation Yrotation
    JOINT RightLeg
    {
      OFFSET 39.9035 0 0
      CHANNELS 3 Zrotation Xrotation Yrotation
      JOINT RightFoot
      {
        OFFSET 39.6689 0 0
        CHANNELS 3 Zrotation Xrotation Yrotation
        JOINT RightToe
        {
          OFFSET 10.1624 13.6296 0
          CHANNELS 3 Zrotation Xrotation Yrotation
          End Site
          {
            OFFSET 8.38147 0 0
          }
        }
      }
    }
  }
}
MOTION
Frames:	18
Frame Time:	0.0333333
425.561 89.2882 -57.5882 160.491 -83.7265 71.663 -0.713891 -0.745937 0.402459 -1.4227 -1.49635 0.795871 -1.4227 -1.49635 0.795862 -8.30748e-012 -9.0191e-006 -5.27751e-005 10 -1.69084e-006 2.312e-005 -178.65 -12.1272 -83.5981 59.2814 -71.1419 59.4492 -4.64799 1.59028e-015 3.18055e-015 -33.3289 -13.4019 -27.342 179.966 4.81619 90.4026 56.9766 54.4375 -52.8143 -21.6951 3.18055e-015 1.59028e-015 -26.0569 33.8966 39.4553 -2.94269 4.44545 -175.473 -7.59144 0 -3.97569e-016 14.5657 14.8099 -15.6936 90 4.52235e-015 1.59028e-015 2.68586 -9.91755 175.678 1.88993e-006 3.18056e-015 5.96354e-016 8.38251 -8.91623 7.17687 90 -3.04389e-016 -0 
425.564 89.288 -57.6138 160.576 -83.7171 71.7427 -0.715153 -0.746062 0.407329 -1.42516 -1.49667 0.805595 -1.42516 -1.49667 0.805586 -8.30669e-012 -9.0191e-006 -5.27751e-005 10.2227 -0.101874 -0.191314 -178.632 -12.1904 -83.5489 58.8541 -71.0211 59.0467 -4.88045 0 -1.59028e-015 -33.8672 -13.4335 -27.5686 179.961 4.83272 90.4592 57.1119 54.4344 -52.9794 -21.7381 3.18055e-015 -3.18055e-015 -26.0099 33.8508 39.367 -2.91821 4.47285 -175.466 -7.54911 -1.59028e-015 9.93923e-016 14.5473 14.8164 -15.717 90 1.98785e-016 -0 2.69331 -9.89511 175.689 -2.0138e-007 -7.95139e-016 1.98785e-016 8.38269 -8.90069 7.15493 90 -4.5969e-016 1.98785e-016 
425.565 89.287 -57.6535 160.606 -83.7199 71.7716 -0.716501 -0.743153 0.406951 -1.4267 -1.49085 0.805411 -1.4267 -1.49085 0.805401 -8.30708e-012 -9.0191e-006 -5.27751e-005 10.2729 -0.20538 -0.338584 -178.643 -12.1719 -83.5872 59.0478 -71.0134 59.1479 -4.91709 -3.18055e-015 -3.18055e-015 -34.5445 -13.3988 -27.9438 179.961 4.80418 90.4601 57.126 54.4459 -52.9256 -21.7381 0 -6.36111e-015 -26.0501 33.8371 39.3153 -2.89647 4.52483 -175.457 -7.55419 0 9.93923e-016 14.5858 14.8641 -15.7758 90 -1.76421e-015 -0 2.71845 -9.91654 175.693 -1.99727e-007 2.38542e-015 -5.96354e-016 8.39839 -8.91576 7.17211 90 5.28022e-016 -7.95139e-016 
425.566 89.2882 -57.7085 160.544 -83.7499 71.7133 -0.718022 -0.74245 0.405941 -1.42781 -1.48944 0.804131 -1.42781 -1.48944 0.804122 -8.30708e-012 -9.0191e-006 -5.27751e-005 10.242 -0.228134 -0.497298 -178.644 -12.1632 -83.5913 59.3335 -71.1175 59.3113 -4.80218 -3.18055e-015 -1.59028e-015 -34.8445 -13.4159 -28.2388 179.961 4.78672 90.4658 57.084 54.461 -52.8343 -21.7746 6.36111e-015 -1.59028e-015 -26.0474 33.8727 39.3512 -2.70444 4.4689 -175.478 -7.30524 -1.59028e-015 9.93923e-016 14.4249 14.787 -15.7657 90 1.73937e-016 -3.18055e-015 2.78556 -9.90347 175.7 -1.94903e-007 -7.95139e-016 1.98785e-016 8.40241 -8.88935 7.12944 90 -2.85753e-016 -1.98785e-016 
425.568 89.2856 -57.7754 160.669 -83.7946 71.8524 -0.719681 -0.728887 0.40449 -1.42886 -1.46226 0.794334 -1.42886 -1.46226 0.794324 -8.30788e-012 -9.0191e-006 -5.27751e-005 10.3082 -0.186833 -0.62098 -178.667 -12.094 -83.664 60.1051 -71.2521 59.9011 -4.65844 3.18055e-015 -1.59028e-015 -34.537 -13.4328 -28.0921 179.963 4.761 90.4467 57.0612 54.4993 -52.7082 -21.7915 6.36111e-015 -1.59028e-015 -26.1951 33.8047 39.3651 -2.50586 4.5041 -175.49 -7.06807 7.95139e-016 -1.98785e-016 14.2671 14.7709 -15.8252 90 -1.36664e-015 -1.59028e-015 2.85959 -9.92125 175.681 -1.87114e-007 3.18056e-015 1.98785e-016 8.44024 -8.92711 7.17299 90 -4.16205e-016 -0 
425.574 89.2828 -57.8479 160.801 -83.8702 71.9878 -0.721154 -0.727858 0.402789 -1.41594 -1.46021 0.803647 -1.41594 -1.46021 0.803638 -8.30788e-012 -9.0191e-006 -5.27751e-005 10.3773 -0.113363 -0.806692 -178.634 -12.2065 -83.5651 60.7608 -71.6296 60.4964 -4.42451 1.59028e-015 -3.18055e-015 -33.7462 -13.5399 -27.722 179.962 4.77299 90.4551 56.9747 54.5195 -52.6531 -21.8807 3.18055e-015 1.59028e-015 -26.3661 33.8083 39.5125 -2.28214 4.51156 -175.496 -6.85574 0 5.96354e-016 14.1596 14.7322 -15.8457 90 2.23633e-015 -1.59028e-015 2.97018 -9.90565 175.682 -1.76563e-007 -1.59028e-015 -7.95139e-016 8.46809 -8.93582 7.16838 90 -6.4605e-016 -5.96354e-016 
425.581 89.28 -57.9181 161.04 -83.9216 72.2292 -0.722481 -0.713664 0.401026 -1.42002 -1.43183 0.802668 -1.42002 -1.43183 0.802659 -8.30788e-012 -9.0191e-006 -5.27751e-005 10.5147 -0.115332 -0.934315 -178.632 -12.1884 -83.5446 61.0023 -71.7483 60.6622 -4.29482 -1.59028e-015 -0 -32.9223 -13.5983 -27.4318 179.965 4.77557 90.4235 56.849 54.4983 -52.4988 -21.93 3.18055e-015 -3.18055e-015 -26.6443 33.741 39.6101 -2.07347 4.5191 -175.502 -6.62154 -7.95139e-016 1.98785e-016 14.0359 14.6839 -15.8587 90 -1.59028e-015 4.77083e-015 3.05435 -9.86036 175.686 -1.63456e-007 3.18056e-015 5.96354e-016 8.48945 -8.92182 7.14754 90 7.64079e-016 1.98785e-016 
425.593 89.2772 -57.9881 161.093 -83.9931 72.2924 -0.723433 -0.698552 0.399391 -1.434 -1.40158 0.790246 -1.434 -1.40158 0.790237 -8.30669e-012 -9.0191e-006 -5.27751e-005 10.7972 -0.142079 -1.01746 -178.657 -12.0647 -83.6007 61.0939 -71.6486 60.6039 -4.19831 1.59028e-015 -1.59028e-015 -32.8309 -13.6056 -27.4987 179.968 4.7469 90.3821 56.8308 54.517 -52.4235 -21.8954 -3.18055e-015 3.18055e-015 -26.8496 33.6241 39.6221 -1.86606 4.56024 -175.511 -6.42832 1.59028e-015 9.93923e-016 13.9525 14.6639 -15.8926 90 7.57867e-016 -3.18055e-015 3.16838 -9.80449 175.694 -1.47996e-007 2.38542e-015 -7.95139e-016 8.50892 -8.88495 7.0743 90 -2.29845e-016 1.98785e-016 
425.608 89.2759 -58.0538 161.04 -84.0788 72.2453 -0.723787 -0.696242 0.396781 -1.44289 -1.39696 0.785001 -1.44289 -1.39696 0.784992 -8.30708e-012 -9.0191e-006 -5.27751e-005 11.3224 -0.0577929 -1.15189 -178.644 -12.0817 -83.5492 61.2333 -71.6628 60.697 -4.14826 0 4.77083e-015 -32.8494 -13.753 -27.5678 179.968 4.73561 90.3866 56.8584 54.5494 -52.5118 -21.8561 -3.18055e-015 -1.59028e-015 -27.0554 33.6514 39.8018 -1.53711 4.4852 -175.523 -6.03577 0 -9.93923e-016 13.7134 14.5725 -15.8922 90 -4.57205e-015 -0 3.29791 -9.75059 175.705 -1.30389e-007 -1.59028e-015 -1.98785e-016 8.52324 -8.84766 7.0087 90 -4.96962e-016 3.97569e-016 
425.609 89.2694 -58.1297 161.187 -84.1656 72.4052 -0.723876 -0.682357 0.387869 -1.45796 -1.36913 0.767258 -1.45796 -1.36913 0.767248 -8.30828e-012 -9.0191e-006 -5.27751e-005 11.9229 -0.00381677 -1.32004 -178.657 -12.0737 -83.6023 62.1855 -71.6704 61.6181 -4.16727 -1.59028e-015 -0 -32.7665 -13.6653 -27.5601 179.972 4.74604 90.3412 56.7598 54.5229 -52.4575 -21.8299 3.18055e-015 1.59028e-015 -27.2038 33.6597 39.8532 -1.34586 4.54805 -175.536 -5.916 1.59028e-015 1.98785e-016 13.6864 14.5729 -15.927 90 6.70898e-016 1.59028e-015 3.41425 -9.78549 175.682 -1.10839e-007 -7.95139e-016 -1.39149e-015 8.58436 -8.91217 7.11132 90 4.41054e-016 3.97569e-016 
425.627 89.2629 -58.1923 161.147 -84.2315 72.3619 -0.723725 -0.676078 0.382954 -1.4616 -1.35652 0.757486 -1.4616 -1.35652 0.757477 -8.30708e-012 -9.0191e-006 -5.27751e-005 12.3469 0.0470201 -1.45384 -178.65 -12.123 -83.5964 62.351 -71.6089 61.8522 -4.17474 0 -0 -32.799 -13.7068 -27.7449 179.975 4.7662 90.301 56.6235 54.4458 -52.3916 -21.8275 3.18055e-015 -0 -27.3768 33.628 39.9088 -1.17216 4.5482 -175.524 -5.7876 2.38542e-015 3.97569e-016 13.6474 14.5526 -15.9372 90 -1.49089e-015 -3.18055e-015 3.52543 -9.75622 175.702 -8.95497e-008 0 -5.96354e-016 8.6166 -8.8944 7.0747 90 -6.02566e-016 -0 
425.651 89.2577 -58.2466 161.071 -84.2769 72.276 -0.723434 -0.675376 0.386697 -1.45217 -1.36246 0.764992 -1.45217 -1.36246 0.764982 -8.30669e-012 -9.0191e-006 -5.27751e-005 12.612 0.130932 -1.63918 -178.608 -12.2167 -83.4479 61.9137 -71.6257 61.4727 -4.13349 1.59028e-015 -3.18055e-015 -32.8803 -13.8042 -27.8406 179.971 4.76856 90.3543 56.7642 54.424 -52.6024 -21.7938 -3.18055e-015 1.59028e-015 -27.425 33.5882 39.8805 -0.983437 4.49969 -175.511 -5.58405 -1.59028e-015 -1.19271e-015 13.5524 14.4875 -15.9103 90 -3.77691e-015 -0 3.61453 -9.73306 175.732 -6.67268e-008 -3.97569e-015 -7.95139e-016 8.6431 -8.87735 7.04819 90 -2.11209e-016 1.98785e-016 
425.676 89.2504 -58.2873 160.958 -84.274 72.1572 -0.723475 -0.674966 0.373804 -1.44277 -1.34428 0.73937 -1.44277 -1.34428 0.739361 -8.30828e-012 -9.0191e-006 -5.27751e-005 12.7423 0.165851 -1.7161 -178.628 -12.1639 -83.5145 62.4117 -71.614 61.8842 -4.07409 4.77083e-015 -1.59028e-015 -32.8067 -13.7133 -27.7097 179.975 4.78684 90.2988 56.7838 54.4179 -52.5911 -21.6975 -6.36111e-015 1.59028e-015 -27.4461 33.6359 39.8855 -0.927281 4.465 -175.487 -5.52229 0 5.96354e-016 13.5299 14.4835 -15.9215 90 -1.46604e-015 -0 3.65255 -9.71747 175.761 -4.25745e-008 7.95139e-016 5.96354e-016 8.67323 -8.8528 7.01052 90 -8.07563e-016 -3.97569e-016 
425.703 89.2472 -58.3199 160.787 -84.2524 71.9652 -0.727751 -0.674766 0.368236 -1.45139 -1.34435 0.728182 -1.45139 -1.34435 0.728173 -8.30748e-012 -9.0191e-006 -5.27751e-005 12.8153 0.248385 -1.71021 -178.618 -12.1666 -83.4696 62.3738 -71.653 61.7683 -3.99516 -6.36111e-015 1.59028e-015 -32.8758 -13.7902 -27.8858 179.977 4.7629 90.281 56.9094 54.4032 -52.6219 -21.6522 -6.36111e-015 -1.59028e-015 -27.4751 33.5998 39.8774 -0.863583 4.42948 -175.461 -5.40327 -7.95139e-016 -1.59028e-015 13.4692 14.4358 -15.8926 90 1.22998e-015 -0 3.66725 -9.75381 175.799 -1.72972e-008 -1.59028e-015 1.98785e-016 8.6959 -8.87144 7.0415 90 -4.22417e-016 1.98785e-016 
425.741 89.2443 -58.3334 160.549 -84.1787 71.6975 -0.738376 -0.674696 0.363072 -1.47272 -1.34544 0.717657 -1.47272 -1.34544 0.717648 -8.30748e-012 -9.0191e-006 -5.27751e-005 12.9707 0.262414 -1.74357 -178.609 -12.1659 -83.4267 62.6992 -71.7953 61.9695 -3.86757 -1.59028e-015 -0 -32.9631 -13.6902 -27.8906 179.978 4.75971 90.2657 56.873 54.3523 -52.5167 -21.5748 -1.27222e-014 4.77083e-015 -27.6842 33.6695 40.0462 -0.92769 4.39003 -175.403 -5.40284 7.95139e-016 -0 13.4731 14.4422 -15.9007 90 1.3418e-015 -1.59028e-015 3.63264 -9.7532 175.863 8.90054e-009 0 -7.95139e-016 8.69934 -8.8398 6.99476 90 -1.80149e-016 -0 
425.762 89.2411 -58.3625 160.712 -84.1426 71.8454 -0.744152 -0.674675 0.356365 -1.48432 -1.34775 0.704189 -1.48432 -1.34775 0.70418 -8.30748e-012 -9.0191e-006 -5.27751e-005 13.0779 0.316825 -1.8027 -178.586 -12.2443 -83.359 62.7467 -71.913 61.9793 -3.8121 1.59028e-015 3.18055e-015 -33.1829 -13.7311 -28.0102 179.977 4.77988 90.2711 56.8875 54.3516 -52.4876 -21.5144 0 -0 -27.7755 33.7234 40.1329 -0.867625 4.33982 -175.384 -5.24817 0 1.39149e-015 13.3888 14.3904 -15.8753 90 1.2921e-015 1.59028e-015 3.61213 -9.80518 175.885 3.58142e-008 0 -9.93923e-016 8.73095 -8.88793 7.08566 90 -8.69683e-016 -5.96354e-016 
425.782 89.2362 -58.3857 160.6 -84.1076 71.7234 -0.741078 -0.674622 0.344987 -1.47823 -1.35046 0.681542 -1.47823 -1.35046 0.681533 -8.30748e-012 -9.0191e-006 -5.27751e-005 13.1567 0.362661 -1.8512 -178.606 -12.1955 -83.4274 63.0598 -71.8916 62.1753 -3.84428 -1.59028e-015 -3.18055e-015 -33.5241 -13.7677 -28.1828 179.973 4.76219 90.3218 57.1561 54.3937 -52.6345 -21.4796 0 -3.18055e-015 -27.7516 33.7261 40.1102 -0.849265 4.2763 -175.364 -5.18489 -1.59028e-015 5.96354e-016 13.3652 14.3619 -15.8556 90 1.71452e-015 -0 3.60618 -9.82756 175.909 6.32391e-008 -7.95139e-016 1.19271e-015 8.75598 -8.89564 7.09392 90 -1.48467e-015 -3.97569e-016 
425.81 89.2309 -58.394 160.284 -84.0485 71.3856 -0.744185 -0.674455 0.338969 -1.4845 -1.3527 0.669436 -1.4845 -1.3527 0.669426 -8.30788e-012 -9.0191e-006 -5.27751e-005 13.2046 0.361416 -1.88606 -178.606 -12.2006 -83.433 63.4483 -71.9705 62.5075 -3.82416 0 -1.59028e-015 -33.8104 -13.6221 -28.3365 179.972 4.76263 90.3326 57.1961 54.4012 -52.5849 -21.4987 3.18055e-015 -3.18055e-015 -27.943 33.6275 40.1607 -0.940478 4.21466 -175.319 -5.27558 7.95139e-016 -1.19271e-015 13.4276 14.3727 -15.8468 90 1.50331e-015 -0 3.58755 -9.80615 175.96 9.09709e-008 1.59028e-015 -7.95139e-016 8.76083 -8.84169 7.02142 90 4.96962e-016 -1.98785e-016 
